{
    "asset" : {
        "generator" : "Khronos glTF Blender I/O v1.6.16",
        "version" : "2.0"
    },
    "scene" : 0,
    "scenes" : [
        {
            "name" : "Scene",
            "nodes" : [
                0,
                1,
                3
            ]
        }
    ],
    "nodes" : [
        {
            "mesh" : 0,
            "name" : "Cube"
        },
        {
            "mesh" : 1,
            "name" : "Cone",
            "translation" : [
                0,
                0,
                -4.3612141609191895
            ]
        },
        {
            "name" : "Camera_Orientation"
        },
        {
            "children" : [
                2
            ],
            "name" : "Camera",
            "rotation" : [
                0.5715538859367371,
                0,
                0,
                0.8205645084381104
            ],
            "translation" : [
                0,
                6.8069868087768555,
                10.164137840270996
            ]
        }
    ],
    "animations" : [
        {
            "channels" : [
                {
                    "sampler" : 0,
                    "target" : {
                        "node" : 0,
                        "path" : "translation"
                    }
                }
            ],
            "name" : "FloatUp",
            "samplers" : [
                {
                    "input" : 38,
                    "interpolation" : "LINEAR",
                    "output" : 39
                }
            ]
        }
    ],
    "materials" : [
        {
            "doubleSided" : true,
            "name" : "Material.001",
            "pbrMetallicRoughness" : {
                "baseColorFactor" : [
                    0.800000011920929,
                    0.800000011920929,
                    0.800000011920929,
                    1
                ],
                "metallicFactor" : 0,
                "roughnessFactor" : 0.4000000059604645
            }
        }
    ],
    "meshes" : [
        {
            "extras" : {
                "targetNames" : [
                    "Key 1",
                    "Key 2",
                    "Key 3",
                    "Key 4",
                    "Key 5",
                    "Key 6",
                    "Key 7",
                    "Key 8"
                ]
            },
            "name" : "Cube.001",
            "primitives" : [
                {
                    "attributes" : {
                        "POSITION" : 0,
                        "NORMAL" : 1,
                        "TANGENT" : 2,
                        "TEXCOORD_0" : 3
                    },
                    "indices" : 4,
                    "material" : 0,
                    "targets" : [
                        {
                            "POSITION" : 5,
                            "NORMAL" : 6
                        },
                        {
                            "POSITION" : 7,
                            "NORMAL" : 8
                        },
                        {
                            "POSITION" : 9,
                            "NORMAL" : 10
                        },
                        {
                            "POSITION" : 11,
                            "NORMAL" : 12
                        },
                        {
                            "POSITION" : 13,
                            "NORMAL" : 14
                        },
                        {
                            "POSITION" : 15,
                            "NORMAL" : 16
                        },
                        {
                            "POSITION" : 17,
                            "NORMAL" : 18
                        },
                        {
                            "POSITION" : 19,
                            "NORMAL" : 20
                        }
                    ]
                }
            ],
            "weights" : [
                0,
                0,
                0,
                0,
                1,
                1,
                1,
                1
            ]
        },
        {
            "extras" : {
                "targetNames" : [
                    "Key 1",
                    "Key 2",
                    "Key 3",
                    "Key 4",
                    "Key 5",
                    "Key 6"
                ]
            },
            "name" : "Cone",
            "primitives" : [
                {
                    "attributes" : {
                        "POSITION" : 21,
                        "NORMAL" : 22,
                        "TANGENT" : 23,
                        "TEXCOORD_0" : 24
                    },
                    "indices" : 25,
                    "targets" : [
                        {
                            "POSITION" : 26,
                            "NORMAL" : 27
                        },
                        {
                            "POSITION" : 28,
                            "NORMAL" : 29
                        },
                        {
                            "POSITION" : 30,
                            "NORMAL" : 31
                        },
                        {
                            "POSITION" : 32,
                            "NORMAL" : 33
                        },
                        {
                            "POSITION" : 34,
                            "NORMAL" : 35
                        },
                        {
                            "POSITION" : 36,
                            "NORMAL" : 37
                        }
                    ]
                }
            ],
            "weights" : [
                0,
                0,
                0,
                0,
                0,
                0
            ]
        }
    ],
    "accessors" : [
        {
            "bufferView" : 0,
            "componentType" : 5126,
            "count" : 276,
            "max" : [
                1,
                1,
                1
            ],
            "min" : [
                -1,
                -1,
                -1
            ],
            "type" : "VEC3"
        },
        {
            "bufferView" : 1,
            "componentType" : 5126,
            "count" : 276,
            "type" : "VEC3"
        },
        {
            "bufferView" : 2,
            "componentType" : 5126,
            "count" : 276,
            "type" : "VEC4"
        },
        {
            "bufferView" : 3,
            "componentType" : 5126,
            "count" : 276,
            "type" : "VEC2"
        },
        {
            "bufferView" : 4,
            "componentType" : 5123,
            "count" : 276,
            "type" : "SCALAR"
        },
        {
            "bufferView" : 5,
            "componentType" : 5126,
            "count" : 276,
            "max" : [
                0.14205700159072876,
                0.36317670345306396,
                2.1620800495147705
            ],
            "min" : [
                -2.325753688812256,
                -0.12704896926879883,
                -0.1493830382823944
            ],
            "type" : "VEC3"
        },
        {
            "bufferView" : 6,
            "componentType" : 5126,
            "count" : 276,
            "type" : "VEC3"
        },
        {
            "bufferView" : 7,
            "componentType" : 5126,
            "count" : 276,
            "max" : [
                0.14205700159072876,
                0.6298741102218628,
                0.14937379956245422
            ],
            "min" : [
                -0.5040037631988525,
                -0.12704896926879883,
                -0.7224071025848389
            ],
            "type" : "VEC3"
        },
        {
            "bufferView" : 8,
            "componentType" : 5126,
            "count" : 276,
            "type" : "VEC3"
        },
        {
            "bufferView" : 9,
            "componentType" : 5126,
            "count" : 276,
            "max" : [
                1.1911587715148926,
                0.7055504322052002,
                0.14937379956245422
            ],
            "min" : [
                -0.1420515477657318,
                -0.12704896926879883,
                -0.9040634632110596
            ],
            "type" : "VEC3"
        },
        {
            "bufferView" : 10,
            "componentType" : 5126,
            "count" : 276,
            "type" : "VEC3"
        },
        {
            "bufferView" : 11,
            "componentType" : 5126,
            "count" : 276,
            "max" : [
                1.0930120944976807,
                0.12705659866333008,
                0.14937379956245422
            ],
            "min" : [
                -0.1420515477657318,
                -1.7105424404144287,
                -0.3054158687591553
            ],
            "type" : "VEC3"
        },
        {
            "bufferView" : 12,
            "componentType" : 5126,
            "count" : 276,
            "type" : "VEC3"
        },
        {
            "bufferView" : 13,
            "componentType" : 5126,
            "count" : 276,
            "max" : [
                1.0931031703948975,
                7.137829303741455,
                1.149359941482544
            ],
            "min" : [
                -1.0931031703948975,
                -0.284426212310791,
                -1.149359941482544
            ],
            "type" : "VEC3"
        },
        {
            "bufferView" : 14,
            "componentType" : 5126,
            "count" : 276,
            "type" : "VEC3"
        },
        {
            "bufferView" : 15,
            "componentType" : 5126,
            "count" : 276,
            "max" : [
                0.7663934230804443,
                0.12705659866333008,
                0.14937379956245422
            ],
            "min" : [
                -0.1420515477657318,
                -1.3416147232055664,
                -1.2583342790603638
            ],
            "type" : "VEC3"
        },
        {
            "bufferView" : 16,
            "componentType" : 5126,
            "count" : 276,
            "type" : "VEC3"
        },
        {
            "bufferView" : 17,
            "componentType" : 5126,
            "count" : 276,
            "max" : [
                1.0939359664916992,
                0.12705659866333008,
                0.14937379956245422
            ],
            "min" : [
                -0.1420515477657318,
                -1.257744312286377,
                -1.9783165454864502
            ],
            "type" : "VEC3"
        },
        {
            "bufferView" : 18,
            "componentType" : 5126,
            "count" : 276,
            "type" : "VEC3"
        },
        {
            "bufferView" : 19,
            "componentType" : 5126,
            "count" : 276,
            "max" : [
                0.9689376950263977,
                0.12705659866333008,
                0.14937379956245422
            ],
            "min" : [
                -0.1420515477657318,
                -1.4092154502868652,
                -1.7750303745269775
            ],
            "type" : "VEC3"
        },
        {
            "bufferView" : 20,
            "componentType" : 5126,
            "count" : 276,
            "type" : "VEC3"
        },
        {
            "bufferView" : 21,
            "componentType" : 5126,
            "count" : 158,
            "max" : [
                1,
                1,
                1
            ],
            "min" : [
                -1,
                -1,
                -1
            ],
            "type" : "VEC3"
        },
        {
            "bufferView" : 22,
            "componentType" : 5126,
            "count" : 158,
            "type" : "VEC3"
        },
        {
            "bufferView" : 23,
            "componentType" : 5126,
            "count" : 158,
            "type" : "VEC4"
        },
        {
            "bufferView" : 24,
            "componentType" : 5126,
            "count" : 158,
            "type" : "VEC2"
        },
        {
            "bufferView" : 25,
            "componentType" : 5123,
            "count" : 186,
            "type" : "SCALAR"
        },
        {
            "bufferView" : 26,
            "componentType" : 5126,
            "count" : 158,
            "max" : [
                0,
                0.5201449394226074,
                0
            ],
            "min" : [
                0,
                0,
                0
            ],
            "type" : "VEC3"
        },
        {
            "bufferView" : 27,
            "componentType" : 5126,
            "count" : 158,
            "type" : "VEC3"
        },
        {
            "bufferView" : 28,
            "componentType" : 5126,
            "count" : 158,
            "max" : [
                5.200448989868164,
                0,
                0
            ],
            "min" : [
                0,
                0,
                0
            ],
            "type" : "VEC3"
        },
        {
            "bufferView" : 29,
            "componentType" : 5126,
            "count" : 158,
            "type" : "VEC3"
        },
        {
            "bufferView" : 30,
            "componentType" : 5126,
            "count" : 158,
            "max" : [
                0,
                0,
                0
            ],
            "min" : [
                0,
                0,
                -1.9945937395095825
            ],
            "type" : "VEC3"
        },
        {
            "bufferView" : 31,
            "componentType" : 5126,
            "count" : 158,
            "type" : "VEC3"
        },
        {
            "bufferView" : 32,
            "componentType" : 5126,
            "count" : 158,
            "max" : [
                0,
                0,
                0
            ],
            "min" : [
                0,
                0,
                0
            ],
            "type" : "VEC3"
        },
        {
            "bufferView" : 33,
            "componentType" : 5126,
            "count" : 158,
            "type" : "VEC3"
        },
        {
            "bufferView" : 34,
            "componentType" : 5126,
            "count" : 158,
            "max" : [
                0,
                0,
                0
            ],
            "min" : [
                0,
                0,
                0
            ],
            "type" : "VEC3"
        },
        {
            "bufferView" : 35,
            "componentType" : 5126,
            "count" : 158,
            "type" : "VEC3"
        },
        {
            "bufferView" : 36,
            "componentType" : 5126,
            "count" : 158,
            "max" : [
                0,
                0,
                0
            ],
            "min" : [
                0,
                0,
                0
            ],
            "type" : "VEC3"
        },
        {
            "bufferView" : 37,
            "componentType" : 5126,
            "count" : 158,
            "type" : "VEC3"
        },
        {
            "bufferView" : 38,
            "componentType" : 5126,
            "count" : 60,
            "max" : [
                2.5
            ],
            "min" : [
                0.041666666666666664
            ],
            "type" : "SCALAR"
        },
        {
            "bufferView" : 39,
            "componentType" : 5126,
            "count" : 60,
            "type" : "VEC3"
        }
    ],
    "bufferViews" : [
        {
            "buffer" : 0,
            "byteLength" : 3312,
            "byteOffset" : 0
        },
        {
            "buffer" : 0,
            "byteLength" : 3312,
            "byteOffset" : 3312
        },
        {
            "buffer" : 0,
            "byteLength" : 4416,
            "byteOffset" : 6624
        },
        {
            "buffer" : 0,
            "byteLength" : 2208,
            "byteOffset" : 11040
        },
        {
            "buffer" : 0,
            "byteLength" : 552,
            "byteOffset" : 13248
        },
        {
            "buffer" : 0,
            "byteLength" : 3312,
            "byteOffset" : 13800
        },
        {
            "buffer" : 0,
            "byteLength" : 3312,
            "byteOffset" : 17112
        },
        {
            "buffer" : 0,
            "byteLength" : 3312,
            "byteOffset" : 20424
        },
        {
            "buffer" : 0,
            "byteLength" : 3312,
            "byteOffset" : 23736
        },
        {
            "buffer" : 0,
            "byteLength" : 3312,
            "byteOffset" : 27048
        },
        {
            "buffer" : 0,
            "byteLength" : 3312,
            "byteOffset" : 30360
        },
        {
            "buffer" : 0,
            "byteLength" : 3312,
            "byteOffset" : 33672
        },
        {
            "buffer" : 0,
            "byteLength" : 3312,
            "byteOffset" : 36984
        },
        {
            "buffer" : 0,
            "byteLength" : 3312,
            "byteOffset" : 40296
        },
        {
            "buffer" : 0,
            "byteLength" : 3312,
            "byteOffset" : 43608
        },
        {
            "buffer" : 0,
            "byteLength" : 3312,
            "byteOffset" : 46920
        },
        {
            "buffer" : 0,
            "byteLength" : 3312,
            "byteOffset" : 50232
        },
        {
            "buffer" : 0,
            "byteLength" : 3312,
            "byteOffset" : 53544
        },
        {
            "buffer" : 0,
            "byteLength" : 3312,
            "byteOffset" : 56856
        },
        {
            "buffer" : 0,
            "byteLength" : 3312,
            "byteOffset" : 60168
        },
        {
            "buffer" : 0,
            "byteLength" : 3312,
            "byteOffset" : 63480
        },
        {
            "buffer" : 0,
            "byteLength" : 1896,
            "byteOffset" : 66792
        },
        {
            "buffer" : 0,
            "byteLength" : 1896,
            "byteOffset" : 68688
        },
        {
            "buffer" : 0,
            "byteLength" : 2528,
            "byteOffset" : 70584
        },
        {
            "buffer" : 0,
            "byteLength" : 1264,
            "byteOffset" : 73112
        },
        {
            "buffer" : 0,
            "byteLength" : 372,
            "byteOffset" : 74376
        },
        {
            "buffer" : 0,
            "byteLength" : 1896,
            "byteOffset" : 74748
        },
        {
            "buffer" : 0,
            "byteLength" : 1896,
            "byteOffset" : 76644
        },
        {
            "buffer" : 0,
            "byteLength" : 1896,
            "byteOffset" : 78540
        },
        {
            "buffer" : 0,
            "byteLength" : 1896,
            "byteOffset" : 80436
        },
        {
            "buffer" : 0,
            "byteLength" : 1896,
            "byteOffset" : 82332
        },
        {
            "buffer" : 0,
            "byteLength" : 1896,
            "byteOffset" : 84228
        },
        {
            "buffer" : 0,
            "byteLength" : 1896,
            "byteOffset" : 86124
        },
        {
            "buffer" : 0,
            "byteLength" : 1896,
            "byteOffset" : 88020
        },
        {
            "buffer" : 0,
            "byteLength" : 1896,
            "byteOffset" : 89916
        },
        {
            "buffer" : 0,
            "byteLength" : 1896,
            "byteOffset" : 91812
        },
        {
            "buffer" : 0,
            "byteLength" : 1896,
            "byteOffset" : 93708
        },
        {
            "buffer" : 0,
            "byteLength" : 1896,
            "byteOffset" : 95604
        },
        {
            "buffer" : 0,
            "byteLength" : 240,
            "byteOffset" : 97500
        },
        {
            "buffer" : 0,
            "byteLength" : 720,
            "byteOffset" : 97740
        }
    ],
    "buffers" : [
        {
            "byteLength" : 98460,
            "uri" : "cube.bin"
        }
    ]
}
