{
    "asset" : {
        "generator" : "Khronos glTF Blender I/O v1.6.16",
        "version" : "2.0"
    },
    "scene" : 0,
    "scenes" : [
        {
            "name" : "Scene",
            "nodes" : [
                0,
                1,
                2,
                3
            ]
        }
    ],
    "nodes" : [
        {
            "mesh" : 0,
            "name" : "Cube"
        },
        {
            "name" : "Light",
            "rotation" : [
                0.16907575726509094,
                0.7558803558349609,
                -0.27217137813568115,
                0.570947527885437
            ],
            "translation" : [
                4.076245307922363,
                5.903861999511719,
                -1.0054539442062378
            ]
        },
        {
            "name" : "Camera",
            "rotation" : [
                0.483536034822464,
                0.33687159419059753,
                -0.20870360732078552,
                0.7804827094078064
            ],
            "translation" : [
                7.358891487121582,
                4.958309173583984,
                6.925790786743164
            ]
        },
        {
            "mesh" : 1,
            "name" : "Cone",
            "translation" : [
                0,
                0,
                -4.3612141609191895
            ]
        }
    ],
    "materials" : [
        {
            "doubleSided" : true,
            "name" : "Material",
            "pbrMetallicRoughness" : {
                "baseColorFactor" : [
                    0.800000011920929,
                    0.800000011920929,
                    0.800000011920929,
                    1
                ],
                "metallicFactor" : 0,
                "roughnessFactor" : 0.4000000059604645
            }
        }
    ],
    "meshes" : [
        {
            "extras" : {
                "targetNames" : [
                    "Key 1",
                    "Key 2",
                    "Key 3",
                    "Key 4",
                    "Key 5",
                    "Key 6",
                    "Key 7",
                    "Key 8"
                ]
            },
            "name" : "Cube",
            "primitives" : [
                {
                    "attributes" : {
                        "POSITION" : 0,
                        "NORMAL" : 1,
                        "TEXCOORD_0" : 2
                    },
                    "indices" : 3,
                    "material" : 0,
                    "targets" : [
                        {
                            "POSITION" : 4,
                            "NORMAL" : 5
                        },
                        {
                            "POSITION" : 6,
                            "NORMAL" : 7
                        },
                        {
                            "POSITION" : 8,
                            "NORMAL" : 9
                        },
                        {
                            "POSITION" : 10,
                            "NORMAL" : 11
                        },
                        {
                            "POSITION" : 12,
                            "NORMAL" : 13
                        },
                        {
                            "POSITION" : 14,
                            "NORMAL" : 15
                        },
                        {
                            "POSITION" : 16,
                            "NORMAL" : 17
                        },
                        {
                            "POSITION" : 18,
                            "NORMAL" : 19
                        }
                    ]
                }
            ],
            "weights" : [
                0,
                0,
                0,
                0,
                1,
                1,
                1,
                1
            ]
        },
        {
            "extras" : {
                "targetNames" : [
                    "Key 1",
                    "Key 2",
                    "Key 3",
                    "Key 4",
                    "Key 5",
                    "Key 6"
                ]
            },
            "name" : "Cone",
            "primitives" : [
                {
                    "attributes" : {
                        "POSITION" : 20,
                        "NORMAL" : 21,
                        "TEXCOORD_0" : 22
                    },
                    "indices" : 23,
                    "targets" : [
                        {
                            "POSITION" : 24,
                            "NORMAL" : 25
                        },
                        {
                            "POSITION" : 26,
                            "NORMAL" : 27
                        },
                        {
                            "POSITION" : 28,
                            "NORMAL" : 29
                        },
                        {
                            "POSITION" : 30,
                            "NORMAL" : 31
                        },
                        {
                            "POSITION" : 32,
                            "NORMAL" : 33
                        },
                        {
                            "POSITION" : 34,
                            "NORMAL" : 35
                        }
                    ]
                }
            ],
            "weights" : [
                0,
                0,
                0,
                0,
                0,
                0
            ]
        }
    ],
    "accessors" : [
        {
            "bufferView" : 0,
            "componentType" : 5126,
            "count" : 264,
            "max" : [
                1,
                1,
                1
            ],
            "min" : [
                -1,
                -1,
                -1
            ],
            "type" : "VEC3"
        },
        {
            "bufferView" : 1,
            "componentType" : 5126,
            "count" : 264,
            "type" : "VEC3"
        },
        {
            "bufferView" : 2,
            "componentType" : 5126,
            "count" : 264,
            "type" : "VEC2"
        },
        {
            "bufferView" : 3,
            "componentType" : 5123,
            "count" : 276,
            "type" : "SCALAR"
        },
        {
            "bufferView" : 4,
            "componentType" : 5126,
            "count" : 264,
            "max" : [
                0.14205700159072876,
                0.36317670345306396,
                2.1620800495147705
            ],
            "min" : [
                -2.325753688812256,
                -0.12704896926879883,
                -0.1493830382823944
            ],
            "type" : "VEC3"
        },
        {
            "bufferView" : 5,
            "componentType" : 5126,
            "count" : 264,
            "type" : "VEC3"
        },
        {
            "bufferView" : 6,
            "componentType" : 5126,
            "count" : 264,
            "max" : [
                0.14205700159072876,
                0.6298741102218628,
                0.14937379956245422
            ],
            "min" : [
                -0.5040037631988525,
                -0.12704896926879883,
                -0.7224071025848389
            ],
            "type" : "VEC3"
        },
        {
            "bufferView" : 7,
            "componentType" : 5126,
            "count" : 264,
            "type" : "VEC3"
        },
        {
            "bufferView" : 8,
            "componentType" : 5126,
            "count" : 264,
            "max" : [
                1.1911587715148926,
                0.7055504322052002,
                0.14937379956245422
            ],
            "min" : [
                -0.1420515477657318,
                -0.12704896926879883,
                -0.9040634632110596
            ],
            "type" : "VEC3"
        },
        {
            "bufferView" : 9,
            "componentType" : 5126,
            "count" : 264,
            "type" : "VEC3"
        },
        {
            "bufferView" : 10,
            "componentType" : 5126,
            "count" : 264,
            "max" : [
                1.0930120944976807,
                0.12705659866333008,
                0.14937379956245422
            ],
            "min" : [
                -0.1420515477657318,
                -1.7105424404144287,
                -0.3054158687591553
            ],
            "type" : "VEC3"
        },
        {
            "bufferView" : 11,
            "componentType" : 5126,
            "count" : 264,
            "type" : "VEC3"
        },
        {
            "bufferView" : 12,
            "componentType" : 5126,
            "count" : 264,
            "max" : [
                1.0931031703948975,
                7.137829303741455,
                1.149359941482544
            ],
            "min" : [
                -1.0931031703948975,
                -0.284426212310791,
                -1.149359941482544
            ],
            "type" : "VEC3"
        },
        {
            "bufferView" : 13,
            "componentType" : 5126,
            "count" : 264,
            "type" : "VEC3"
        },
        {
            "bufferView" : 14,
            "componentType" : 5126,
            "count" : 264,
            "max" : [
                0.7663934230804443,
                0.12705659866333008,
                0.14937379956245422
            ],
            "min" : [
                -0.1420515477657318,
                -1.3416147232055664,
                -1.2583342790603638
            ],
            "type" : "VEC3"
        },
        {
            "bufferView" : 15,
            "componentType" : 5126,
            "count" : 264,
            "type" : "VEC3"
        },
        {
            "bufferView" : 16,
            "componentType" : 5126,
            "count" : 264,
            "max" : [
                1.0939359664916992,
                0.12705659866333008,
                0.14937379956245422
            ],
            "min" : [
                -0.1420515477657318,
                -1.257744312286377,
                -1.9783165454864502
            ],
            "type" : "VEC3"
        },
        {
            "bufferView" : 17,
            "componentType" : 5126,
            "count" : 264,
            "type" : "VEC3"
        },
        {
            "bufferView" : 18,
            "componentType" : 5126,
            "count" : 264,
            "max" : [
                0.9689376950263977,
                0.12705659866333008,
                0.14937379956245422
            ],
            "min" : [
                -0.1420515477657318,
                -1.4092154502868652,
                -1.7750303745269775
            ],
            "type" : "VEC3"
        },
        {
            "bufferView" : 19,
            "componentType" : 5126,
            "count" : 264,
            "type" : "VEC3"
        },
        {
            "bufferView" : 20,
            "componentType" : 5126,
            "count" : 128,
            "max" : [
                1,
                1,
                1
            ],
            "min" : [
                -1,
                -1,
                -1
            ],
            "type" : "VEC3"
        },
        {
            "bufferView" : 21,
            "componentType" : 5126,
            "count" : 128,
            "type" : "VEC3"
        },
        {
            "bufferView" : 22,
            "componentType" : 5126,
            "count" : 128,
            "type" : "VEC2"
        },
        {
            "bufferView" : 23,
            "componentType" : 5123,
            "count" : 186,
            "type" : "SCALAR"
        },
        {
            "bufferView" : 24,
            "componentType" : 5126,
            "count" : 128,
            "max" : [
                0,
                0.5201449394226074,
                0
            ],
            "min" : [
                0,
                0,
                0
            ],
            "type" : "VEC3"
        },
        {
            "bufferView" : 25,
            "componentType" : 5126,
            "count" : 128,
            "type" : "VEC3"
        },
        {
            "bufferView" : 26,
            "componentType" : 5126,
            "count" : 128,
            "max" : [
                5.200448989868164,
                0,
                0
            ],
            "min" : [
                0,
                0,
                0
            ],
            "type" : "VEC3"
        },
        {
            "bufferView" : 27,
            "componentType" : 5126,
            "count" : 128,
            "type" : "VEC3"
        },
        {
            "bufferView" : 28,
            "componentType" : 5126,
            "count" : 128,
            "max" : [
                0,
                0,
                0
            ],
            "min" : [
                0,
                0,
                -1.9945937395095825
            ],
            "type" : "VEC3"
        },
        {
            "bufferView" : 29,
            "componentType" : 5126,
            "count" : 128,
            "type" : "VEC3"
        },
        {
            "bufferView" : 30,
            "componentType" : 5126,
            "count" : 128,
            "max" : [
                0,
                0,
                0
            ],
            "min" : [
                0,
                0,
                0
            ],
            "type" : "VEC3"
        },
        {
            "bufferView" : 31,
            "componentType" : 5126,
            "count" : 128,
            "type" : "VEC3"
        },
        {
            "bufferView" : 32,
            "componentType" : 5126,
            "count" : 128,
            "max" : [
                0,
                0,
                0
            ],
            "min" : [
                0,
                0,
                0
            ],
            "type" : "VEC3"
        },
        {
            "bufferView" : 33,
            "componentType" : 5126,
            "count" : 128,
            "type" : "VEC3"
        },
        {
            "bufferView" : 34,
            "componentType" : 5126,
            "count" : 128,
            "max" : [
                0,
                0,
                0
            ],
            "min" : [
                0,
                0,
                0
            ],
            "type" : "VEC3"
        },
        {
            "bufferView" : 35,
            "componentType" : 5126,
            "count" : 128,
            "type" : "VEC3"
        }
    ],
    "bufferViews" : [
        {
            "buffer" : 0,
            "byteLength" : 3168,
            "byteOffset" : 0
        },
        {
            "buffer" : 0,
            "byteLength" : 3168,
            "byteOffset" : 3168
        },
        {
            "buffer" : 0,
            "byteLength" : 2112,
            "byteOffset" : 6336
        },
        {
            "buffer" : 0,
            "byteLength" : 552,
            "byteOffset" : 8448
        },
        {
            "buffer" : 0,
            "byteLength" : 3168,
            "byteOffset" : 9000
        },
        {
            "buffer" : 0,
            "byteLength" : 3168,
            "byteOffset" : 12168
        },
        {
            "buffer" : 0,
            "byteLength" : 3168,
            "byteOffset" : 15336
        },
        {
            "buffer" : 0,
            "byteLength" : 3168,
            "byteOffset" : 18504
        },
        {
            "buffer" : 0,
            "byteLength" : 3168,
            "byteOffset" : 21672
        },
        {
            "buffer" : 0,
            "byteLength" : 3168,
            "byteOffset" : 24840
        },
        {
            "buffer" : 0,
            "byteLength" : 3168,
            "byteOffset" : 28008
        },
        {
            "buffer" : 0,
            "byteLength" : 3168,
            "byteOffset" : 31176
        },
        {
            "buffer" : 0,
            "byteLength" : 3168,
            "byteOffset" : 34344
        },
        {
            "buffer" : 0,
            "byteLength" : 3168,
            "byteOffset" : 37512
        },
        {
            "buffer" : 0,
            "byteLength" : 3168,
            "byteOffset" : 40680
        },
        {
            "buffer" : 0,
            "byteLength" : 3168,
            "byteOffset" : 43848
        },
        {
            "buffer" : 0,
            "byteLength" : 3168,
            "byteOffset" : 47016
        },
        {
            "buffer" : 0,
            "byteLength" : 3168,
            "byteOffset" : 50184
        },
        {
            "buffer" : 0,
            "byteLength" : 3168,
            "byteOffset" : 53352
        },
        {
            "buffer" : 0,
            "byteLength" : 3168,
            "byteOffset" : 56520
        },
        {
            "buffer" : 0,
            "byteLength" : 1536,
            "byteOffset" : 59688
        },
        {
            "buffer" : 0,
            "byteLength" : 1536,
            "byteOffset" : 61224
        },
        {
            "buffer" : 0,
            "byteLength" : 1024,
            "byteOffset" : 62760
        },
        {
            "buffer" : 0,
            "byteLength" : 372,
            "byteOffset" : 63784
        },
        {
            "buffer" : 0,
            "byteLength" : 1536,
            "byteOffset" : 64156
        },
        {
            "buffer" : 0,
            "byteLength" : 1536,
            "byteOffset" : 65692
        },
        {
            "buffer" : 0,
            "byteLength" : 1536,
            "byteOffset" : 67228
        },
        {
            "buffer" : 0,
            "byteLength" : 1536,
            "byteOffset" : 68764
        },
        {
            "buffer" : 0,
            "byteLength" : 1536,
            "byteOffset" : 70300
        },
        {
            "buffer" : 0,
            "byteLength" : 1536,
            "byteOffset" : 71836
        },
        {
            "buffer" : 0,
            "byteLength" : 1536,
            "byteOffset" : 73372
        },
        {
            "buffer" : 0,
            "byteLength" : 1536,
            "byteOffset" : 74908
        },
        {
            "buffer" : 0,
            "byteLength" : 1536,
            "byteOffset" : 76444
        },
        {
            "buffer" : 0,
            "byteLength" : 1536,
            "byteOffset" : 77980
        },
        {
            "buffer" : 0,
            "byteLength" : 1536,
            "byteOffset" : 79516
        },
        {
            "buffer" : 0,
            "byteLength" : 1536,
            "byteOffset" : 81052
        }
    ],
    "buffers" : [
        {
            "byteLength" : 82588,
            "uri" : "cube.bin"
        }
    ]
}
